# xmcd
#
# Track frame offsets: 
#        150
#        16911
#        30845
#        42249
#        53444
#        68712
#        81137
#        93529
#        108189
#        124021
#        137969
#        146443
#        153761
#        161481
#        172626
#        183252
#        194738
#        204164
#        219078
#        237355
#        248677
#        260311
#
# Disc length: 3572 seconds
#
# Revision: 0
# Processed by: cddbd v1.5.1PL2 Copyright (c) Steve Scherf et al.
# Submitted via: ExactAudioCopy v0.95a5
#
DISCID=100df216
DTITLE=Mel Bay - American Fiddle Method
DYEAR=1998
DGENRE=Bluegrass
TTITLE0=Boil 'em Cabbage Down
TTITLE1=Shornin' Bread
TTITLE2=Cripple Creek
TTITLE3=Camptown Races
TTITLE4=Angelina Baker
TTITLE5=Buffalo Gals
TTITLE6=Cindy
TTITLE7=Crawdad Song
TTITLE8=Old Joe Clark
TTITLE9=Soldier's Joy
TTITLE10=Arran Boat Song
TTITLE11=Bonaparte's Retreat
TTITLE12=Country Waltz
TTITLE13=Red Haired Boy
TTITLE14=Girl I Left Behind Me
TTITLE15=Southwind
TTITLE16=Redwing
TTITLE17=Cairo
TTITLE18=Turkey in the Straw
TTITLE19=Grandfather's Clock
TTITLE20=Wise Old Friend
TTITLE21=Stinky's Blues
EXTD=
EXTT0=
EXTT1=
EXTT2=
EXTT3=
EXTT4=
EXTT5=
EXTT6=
EXTT7=
EXTT8=
EXTT9=
EXTT10=
EXTT11=
EXTT12=
EXTT13=
EXTT14=
EXTT15=
EXTT16=
EXTT17=
EXTT18=
EXTT19=
EXTT20=
EXTT21=
PLAYORDER=
